<svg width="73" height="71" viewBox="0 0 73 71" fill="none" xmlns="http://www.w3.org/2000/svg">
<path d="M36.5 13.2648C23.6586 13.2648 13.2727 23.6446 13.2727 36.4783H19.9091C19.9091 27.3255 27.3418 19.8972 36.5 19.8972C45.6582 19.8972 53.0909 27.3255 53.0909 36.4783H59.7273C59.7273 23.6446 49.3414 13.2648 36.5 13.2648ZM39.8182 44.0724C42.7382 42.7791 44.7955 39.894 44.7955 36.4783C44.7955 34.2795 43.9215 32.1708 42.3658 30.616C40.8101 29.0612 38.7001 28.1878 36.5 28.1878C34.2999 28.1878 32.1899 29.0612 30.6342 30.616C29.0785 32.1708 28.2045 34.2795 28.2045 36.4783C28.2045 39.8608 30.2618 42.7791 33.1818 44.0724V55.0159L21.8668 66.3242L26.5455 71L36.5 61.0514L46.4545 71L51.1332 66.3242L39.8182 55.0159V44.0724ZM36.5 0C16.3586 0 0 16.3489 0 36.4783H6.63636C6.63636 28.5627 9.7827 20.9713 15.3832 15.3741C20.9837 9.77688 28.5797 6.63242 36.5 6.63242C44.4203 6.63242 52.0163 9.77688 57.6168 15.3741C63.2173 20.9713 66.3636 28.5627 66.3636 36.4783H73C73 16.3489 56.6414 0 36.5 0Z" fill="white"/>
</svg>
