<svg width="108" height="108" viewBox="0 0 108 108" fill="none" xmlns="http://www.w3.org/2000/svg">
<path d="M71.4194 26.1289H67.9355V34.8386H71.4194V26.1289Z" fill="white"/>
<path d="M84.8446 43.0381L82.3815 40.575L87.0969 35.8595V13.9355H90.5808V37.3019L84.8446 43.0381Z" fill="white"/>
<path d="M98.7799 53.4897L96.3168 51.0266L101.032 46.3112V27.8711H104.516V47.7535L98.7799 53.4897Z" fill="white"/>
<path d="M69.6774 22.6452C66.7962 22.6452 64.4516 20.3006 64.4516 17.4194C64.4516 14.5382 66.7962 12.1936 69.6774 12.1936C72.5585 12.1936 74.9032 14.5382 74.9032 17.4194C74.9032 20.3006 72.5585 22.6452 69.6774 22.6452ZM69.6774 15.6775C68.7158 15.6775 67.9354 16.4579 67.9354 17.4194C67.9354 18.381 68.7158 19.1613 69.6774 19.1613C70.6389 19.1613 71.4193 18.381 71.4193 17.4194C71.4193 16.4579 70.6389 15.6775 69.6774 15.6775Z" fill="white"/>
<path d="M55.7419 13.9355H52.258V33.0968H55.7419V13.9355Z" fill="white"/>
<path d="M54 10.4516C51.1189 10.4516 48.7742 8.10697 48.7742 5.22581C48.7742 2.34465 51.1189 0 54 0C56.8812 0 59.2258 2.34465 59.2258 5.22581C59.2258 8.10697 56.8812 10.4516 54 10.4516ZM54 3.48387C53.0385 3.48387 52.2581 4.26426 52.2581 5.22581C52.2581 6.18736 53.0385 6.96774 54 6.96774C54.9616 6.96774 55.742 6.18736 55.742 5.22581C55.742 4.26426 54.9616 3.48387 54 3.48387Z" fill="white"/>
<path d="M88.8388 10.4516C85.9576 10.4516 83.6129 8.10697 83.6129 5.22581C83.6129 2.34465 85.9576 0 88.8388 0C91.7199 0 94.0646 2.34465 94.0646 5.22581C94.0646 8.10697 91.7199 10.4516 88.8388 10.4516ZM88.8388 3.48387C87.8772 3.48387 87.0968 4.26426 87.0968 5.22581C87.0968 6.18736 87.8772 6.96774 88.8388 6.96774C89.8003 6.96774 90.5807 6.18736 90.5807 5.22581C90.5807 4.26426 89.8003 3.48387 88.8388 3.48387Z" fill="white"/>
<path d="M102.774 24.3872C99.8931 24.3872 97.5484 22.0425 97.5484 19.1614C97.5484 16.2802 99.8931 13.9355 102.774 13.9355C105.655 13.9355 108 16.2802 108 19.1614C108 22.0425 105.655 24.3872 102.774 24.3872ZM102.774 17.4194C101.813 17.4194 101.032 18.1998 101.032 19.1614C101.032 20.1229 101.813 20.9033 102.774 20.9033C103.736 20.9033 104.516 20.1229 104.516 19.1614C104.516 18.1998 103.736 17.4194 102.774 17.4194Z" fill="white"/>
<path d="M40.0646 26.1289H36.5807V36.5805H40.0646V26.1289Z" fill="white"/>
<path d="M23.1555 43.0381L17.4193 37.3019V13.9355H20.9032V35.8595L25.6186 40.575L23.1555 43.0381Z" fill="white"/>
<path d="M12.7039 56.9736L3.48383 47.7535V27.8711H6.9677V46.3112L15.167 54.5105L12.7039 56.9736Z" fill="white"/>
<path d="M38.3225 22.6452C35.4413 22.6452 33.0966 20.3006 33.0966 17.4194C33.0966 14.5382 35.4413 12.1936 38.3225 12.1936C41.2036 12.1936 43.5483 14.5382 43.5483 17.4194C43.5483 20.3006 41.2036 22.6452 38.3225 22.6452ZM38.3225 15.6775C37.3609 15.6775 36.5805 16.4579 36.5805 17.4194C36.5805 18.381 37.3609 19.1613 38.3225 19.1613C39.284 19.1613 40.0644 18.381 40.0644 17.4194C40.0644 16.4579 39.284 15.6775 38.3225 15.6775Z" fill="white"/>
<path d="M19.1613 10.4516C16.2801 10.4516 13.9355 8.10697 13.9355 5.22581C13.9355 2.34465 16.2801 0 19.1613 0C22.0425 0 24.3871 2.34465 24.3871 5.22581C24.3871 8.10697 22.0425 10.4516 19.1613 10.4516ZM19.1613 3.48387C18.1997 3.48387 17.4194 4.26426 17.4194 5.22581C17.4194 6.18736 18.1997 6.96774 19.1613 6.96774C20.1228 6.96774 20.9032 6.18736 20.9032 5.22581C20.9032 4.26426 20.1228 3.48387 19.1613 3.48387Z" fill="white"/>
<path d="M5.22581 24.3872C2.34465 24.3872 0 22.0425 0 19.1614C0 16.2802 2.34465 13.9355 5.22581 13.9355C8.10697 13.9355 10.4516 16.2802 10.4516 19.1614C10.4516 22.0425 8.10697 24.3872 5.22581 24.3872ZM5.22581 17.4194C4.26426 17.4194 3.48387 18.1998 3.48387 19.1614C3.48387 20.1229 4.26426 20.9033 5.22581 20.9033C6.18736 20.9033 6.96774 20.1229 6.96774 19.1614C6.96774 18.1998 6.18736 17.4194 5.22581 17.4194Z" fill="white"/>
<path d="M47.0323 83.613C47.0323 87.4557 50.1573 90.5807 54 90.5807C57.8427 90.5807 60.9677 87.4557 60.9677 83.613C60.9677 79.7703 57.8427 76.6453 54 76.6453C50.1573 76.6453 47.0323 79.7703 47.0323 83.613ZM57.4839 83.613C57.4839 85.5344 55.9214 87.0969 54 87.0969C52.0786 87.0969 50.5161 85.5344 50.5161 83.613C50.5161 81.6917 52.0786 80.1291 54 80.1291C55.9214 80.1291 57.4839 81.6917 57.4839 83.613Z" fill="white"/>
<path d="M72.8427 74.6055L69.6985 76.1053C69.9632 76.6627 70.2019 77.2323 70.4092 77.8176L70.721 78.7008L74.9016 79.7477V87.4784L70.721 88.5253L70.4092 89.4084C70.2019 89.9937 69.965 90.5616 69.7002 91.1173L69.2961 91.9604L71.5136 95.6602L66.0456 101.128L62.3492 98.9107L61.5061 99.3131C60.9487 99.5779 60.3791 99.8165 59.7938 100.024L58.9107 100.336L57.8655 104.516H50.1348L49.0879 100.336L48.2047 100.024C47.6194 99.8165 47.0498 99.5779 46.4924 99.3131L45.6493 98.9107L41.9529 101.128L35.5252 94.7004L33.0621 97.1635L41.4129 105.514L45.8601 102.847C45.9594 102.889 46.0587 102.931 46.1579 102.971L47.4139 108H60.5864L61.8441 102.969C61.9434 102.929 62.0427 102.888 62.1419 102.846L66.5891 105.513L75.9015 96.2003L73.2363 91.7531C73.2764 91.6521 73.3182 91.5545 73.3583 91.4552L78.3872 90.1993V77.0268L73.3565 75.7691C73.198 75.3754 73.0256 74.987 72.8427 74.6055Z" fill="white"/>
<path d="M29.6129 77.0269V90.1994L34.6437 91.4571C34.8039 91.8508 34.9746 92.2392 35.1593 92.6207L38.3 91.1174C38.0352 90.5618 37.7983 89.9921 37.591 89.4086L37.2775 88.5237L33.0968 87.4785V79.7478L37.2775 78.7009L37.5893 77.8178C37.7966 77.2325 38.0352 76.6628 38.3 76.1054L38.7024 75.2623L36.4849 71.5659L41.9528 66.098L45.6492 68.3155L46.4923 67.9131C47.0497 67.6483 47.6193 67.4097 48.2046 67.2024L49.0878 66.8906L50.1347 62.7099H57.8654L58.9123 66.8906L59.7955 67.2024C60.3807 67.4097 60.9504 67.6483 61.5078 67.9131L62.3509 68.3155L66.0473 66.098L72.475 72.5257L74.9381 70.0627L66.5873 61.7118L62.1401 64.3787C62.0408 64.3369 61.9415 64.2951 61.8422 64.255L60.5863 59.2261H47.4138L46.1561 64.2568C46.0568 64.2968 45.9575 64.3387 45.8582 64.3805L41.4111 61.7136L32.0987 71.0259L34.7656 75.4731C34.7238 75.5724 34.682 75.6717 34.6419 75.771L29.6129 77.0269Z" fill="white"/>
<path d="M101.022 66.3313C101.024 66.286 101.032 66.239 101.032 66.1937C101.032 58.6233 94.9616 52.4568 87.4347 52.2757C86.0377 49.8596 83.7052 48.0584 80.9338 47.3599C78.9079 42.0052 73.7239 38.3227 67.9355 38.3227C65.7842 38.3227 63.6643 38.8262 61.7359 39.7895C59.0116 37.7113 55.6914 36.5808 52.2581 36.5808C48.2429 36.5808 44.4002 38.1346 41.5016 40.8677C39.9513 40.3538 38.2999 40.0647 36.5806 40.0647C28.8395 40.0647 22.2689 45.7434 21.1001 53.3417C17.9088 54.7806 15.4388 57.5537 14.4302 61.0324C6.36852 61.6699 0 68.4216 0 76.6453C0 85.2906 7.03219 92.3227 15.6774 92.3227H26.129V88.8389H15.6774C8.95529 88.8389 3.48387 83.3675 3.48387 76.6453C3.48387 69.9232 8.95529 64.4518 15.6774 64.4518C19.3999 64.4518 22.8699 66.1206 25.2006 69.0278L27.9197 66.8504C25.434 63.7463 21.9327 61.764 18.0795 61.1735C19.3843 57.9457 22.5093 55.7421 26.129 55.7421C29.2262 55.7421 32.1178 57.4109 33.6734 60.0952L36.6869 58.3498C34.5112 54.5924 30.4647 52.2582 26.129 52.2582C25.7075 52.2582 25.2929 52.2844 24.8818 52.3262C26.3712 47.2118 31.097 43.5486 36.5806 43.5486C43.3028 43.5486 48.7742 49.02 48.7742 55.7421H52.2581C52.2581 50.1749 49.3334 45.2887 44.9472 42.5069C47.041 40.9374 49.6016 40.0647 52.2581 40.0647C55.2507 40.0647 58.1354 41.1743 60.3825 43.1862L61.3527 44.0537L62.4606 43.3691C64.1172 42.3484 66.0106 41.8066 67.9355 41.8066C71.7312 41.8066 75.1802 43.9231 77.0075 47.1335C71.8949 47.8128 67.9355 52.1886 67.9355 57.484H71.4194C71.4194 53.6413 74.5444 50.5163 78.3871 50.5163C82.2298 50.5163 85.3548 53.6413 85.3548 57.484C85.3548 61.3267 82.2298 64.4518 78.3871 64.4518V67.9356C84.1512 67.9356 88.8387 63.2481 88.8387 57.484C88.8387 56.9371 88.783 56.404 88.7028 55.878C93.2789 56.5887 96.8777 60.2694 97.4578 64.8873C96.3691 64.6138 95.2368 64.4518 94.0645 64.4518C89.1331 64.4518 84.6668 66.9758 82.1218 71.2053L85.1057 73.0012C87.0149 69.8291 90.3646 67.9356 94.0645 67.9356C99.8286 67.9356 104.516 72.6232 104.516 78.3873C104.516 84.1513 99.8286 88.8389 94.0645 88.8389H81.871V92.3227H94.0645C101.748 92.3227 108 86.0709 108 78.3873C108 73.2381 105.187 68.7439 101.022 66.3313Z" fill="white"/>
<path d="M95.8064 78.3872H92.3225V81.8711H95.8064V78.3872Z" fill="white"/>
<path d="M52.2581 69.6775V69.7977C45.3948 70.6599 40.0645 76.5198 40.0645 83.613C40.0645 91.2967 46.3163 97.5485 54 97.5485C61.0932 97.5485 66.953 92.2181 67.8153 85.3549H67.9355V81.871H67.8153C67.0262 75.5792 62.0338 70.5885 55.7419 69.7977V69.6775H52.2581ZM64.4516 83.613C64.4516 89.377 59.7641 94.0646 54 94.0646C48.2359 94.0646 43.5484 89.377 43.5484 83.613C43.5484 77.8489 48.2359 73.1614 54 73.1614C59.7641 73.1614 64.4516 77.8489 64.4516 83.613Z" fill="white"/>
<path d="M17.4194 80.1292H13.9355V83.613H17.4194V80.1292Z" fill="white"/>
<path d="M43.5484 50.5164H40.0645V54.0002H43.5484V50.5164Z" fill="white"/>
<path d="M64.4516 48.7744H60.9677V52.2583H64.4516V48.7744Z" fill="white"/>
</svg>
