<svg width="32" height="40" viewBox="0 0 32 40" fill="none" xmlns="http://www.w3.org/2000/svg">
<path fill-rule="evenodd" clip-rule="evenodd" d="M5.33333 10.6667V16H4.66667C3.42899 16 2.24201 16.4917 1.36684 17.3668C0.491666 18.242 0 19.429 0 20.6667V35.3333C0 37.9093 2.09067 40 4.66667 40H27.3333C28.571 40 29.758 39.5083 30.6332 38.6332C31.5083 37.758 32 36.571 32 35.3333V20.6667C32 19.429 31.5083 18.242 30.6332 17.3668C29.758 16.4917 28.571 16 27.3333 16H26.6667V10.6667C26.6667 7.83769 25.5429 5.12458 23.5425 3.12419C21.5421 1.12381 18.829 0 16 0C13.171 0 10.4579 1.12381 8.45753 3.12419C6.45714 5.12458 5.33333 7.83769 5.33333 10.6667ZM22.6667 16V10.6667C22.6667 8.89856 21.9643 7.20286 20.714 5.95262C19.4638 4.70238 17.7681 4 16 4C14.2319 4 12.5362 4.70238 11.286 5.95262C10.0357 7.20286 9.33333 8.89856 9.33333 10.6667V16H22.6667ZM26.6667 20H27.3333C27.5101 20 27.6797 20.0702 27.8047 20.1953C27.9298 20.3203 28 20.4899 28 20.6667V35.3333C28 35.5101 27.9298 35.6797 27.8047 35.8047C27.6797 35.9298 27.5101 36 27.3333 36H4.66667C4.48986 36 4.32029 35.9298 4.19526 35.8047C4.07024 35.6797 4 35.5101 4 35.3333V20.6667C4 20.4899 4.07024 20.3203 4.19526 20.1953C4.32029 20.0702 4.48986 20 4.66667 20H26.6667Z" fill="white"/>
</svg>
