<svg width="120" height="109" viewBox="0 0 120 109" fill="none" xmlns="http://www.w3.org/2000/svg">
<path d="M109.091 76.3H10.9091V10.9H109.091V76.3ZM109.091 0H10.9091C4.85455 0 0 4.8505 0 10.9V76.3C0 79.1909 1.14935 81.9633 3.1952 84.0075C5.24105 86.0516 8.01582 87.2 10.9091 87.2H49.0909V98.1H38.1818V109H81.8182V98.1H70.9091V87.2H109.091C111.984 87.2 114.759 86.0516 116.805 84.0075C118.851 81.9633 120 79.1909 120 76.3V10.9C120 8.00914 118.851 5.23668 116.805 3.19254C114.759 1.14839 111.984 0 109.091 0Z" fill="white"/>
</svg>
