<svg width="108" height="99" viewBox="0 0 108 99" fill="none" xmlns="http://www.w3.org/2000/svg">
<path d="M98.1818 69.3H9.81818V9.9H98.1818V69.3ZM98.1818 0H9.81818C4.36909 0 0 4.4055 0 9.9V69.3C0 71.9256 1.03441 74.4437 2.87568 76.3004C4.71695 78.157 7.21424 79.2 9.81818 79.2H44.1818V89.1H34.3636V99H73.6364V89.1H63.8182V79.2H98.1818C100.786 79.2 103.283 78.157 105.124 76.3004C106.966 74.4437 108 71.9256 108 69.3V9.9C108 7.27436 106.966 4.75625 105.124 2.89964C103.283 1.04303 100.786 0 98.1818 0Z" fill="white"/>
</svg>
