<svg width="105" height="105" viewBox="0 0 105 105" fill="none" xmlns="http://www.w3.org/2000/svg">
<path d="M62.5 36.4583H41.6667C40.2853 36.4583 38.9606 37.0071 37.9838 37.9838C37.0071 38.9606 36.4583 40.2853 36.4583 41.6667V62.5C36.4583 63.8813 37.0071 65.2061 37.9838 66.1828C38.9606 67.1596 40.2853 67.7083 41.6667 67.7083H62.5C63.8813 67.7083 65.2061 67.1596 66.1828 66.1828C67.1596 65.2061 67.7083 63.8813 67.7083 62.5V41.6667C67.7083 40.2853 67.1596 38.9606 66.1828 37.9838C65.2061 37.0071 63.8813 36.4583 62.5 36.4583ZM57.2917 57.2917H46.875V46.875H57.2917V57.2917ZM98.9583 57.2917C100.34 57.2917 101.664 56.7429 102.641 55.7662C103.618 54.7894 104.167 53.4647 104.167 52.0833C104.167 50.702 103.618 49.3772 102.641 48.4005C101.664 47.4237 100.34 46.875 98.9583 46.875H88.5417V36.4583H98.9583C100.34 36.4583 101.664 35.9096 102.641 34.9328C103.618 33.9561 104.167 32.6313 104.167 31.25C104.167 29.8687 103.618 28.5439 102.641 27.5672C101.664 26.5904 100.34 26.0417 98.9583 26.0417H87.6042C86.8265 23.8573 85.5724 21.8734 83.9328 20.2339C82.2933 18.5943 80.3094 17.3402 78.125 16.5625V5.20833C78.125 3.827 77.5763 2.50224 76.5995 1.52549C75.6228 0.548733 74.298 0 72.9167 0C71.5353 0 70.2106 0.548733 69.2338 1.52549C68.2571 2.50224 67.7083 3.827 67.7083 5.20833V15.625H57.2917V5.20833C57.2917 3.827 56.7429 2.50224 55.7662 1.52549C54.7894 0.548733 53.4647 0 52.0833 0C50.702 0 49.3772 0.548733 48.4005 1.52549C47.4237 2.50224 46.875 3.827 46.875 5.20833V15.625H36.4583V5.20833C36.4583 3.827 35.9096 2.50224 34.9328 1.52549C33.9561 0.548733 32.6313 0 31.25 0C29.8687 0 28.5439 0.548733 27.5672 1.52549C26.5904 2.50224 26.0417 3.827 26.0417 5.20833V16.5625C23.8573 17.3402 21.8734 18.5943 20.2339 20.2339C18.5943 21.8734 17.3402 23.8573 16.5625 26.0417H5.20833C3.827 26.0417 2.50224 26.5904 1.52549 27.5672C0.548733 28.5439 0 29.8687 0 31.25C0 32.6313 0.548733 33.9561 1.52549 34.9328C2.50224 35.9096 3.827 36.4583 5.20833 36.4583H15.625V46.875H5.20833C3.827 46.875 2.50224 47.4237 1.52549 48.4005C0.548733 49.3772 0 50.702 0 52.0833C0 53.4647 0.548733 54.7894 1.52549 55.7662C2.50224 56.7429 3.827 57.2917 5.20833 57.2917H15.625V67.7083H5.20833C3.827 67.7083 2.50224 68.2571 1.52549 69.2338C0.548733 70.2106 0 71.5353 0 72.9167C0 74.298 0.548733 75.6228 1.52549 76.5995C2.50224 77.5763 3.827 78.125 5.20833 78.125H16.5625C17.3402 80.3094 18.5943 82.2933 20.2339 83.9328C21.8734 85.5724 23.8573 86.8265 26.0417 87.6042V98.9583C26.0417 100.34 26.5904 101.664 27.5672 102.641C28.5439 103.618 29.8687 104.167 31.25 104.167C32.6313 104.167 33.9561 103.618 34.9328 102.641C35.9096 101.664 36.4583 100.34 36.4583 98.9583V88.5417H46.875V98.9583C46.875 100.34 47.4237 101.664 48.4005 102.641C49.3772 103.618 50.702 104.167 52.0833 104.167C53.4647 104.167 54.7894 103.618 55.7662 102.641C56.7429 101.664 57.2917 100.34 57.2917 98.9583V88.5417H67.7083V98.9583C67.7083 100.34 68.2571 101.664 69.2338 102.641C70.2106 103.618 71.5353 104.167 72.9167 104.167C74.298 104.167 75.6228 103.618 76.5995 102.641C77.5763 101.664 78.125 100.34 78.125 98.9583V87.6042C80.3094 86.8265 82.2933 85.5724 83.9328 83.9328C85.5724 82.2933 86.8265 80.3094 87.6042 78.125H98.9583C100.34 78.125 101.664 77.5763 102.641 76.5995C103.618 75.6228 104.167 74.298 104.167 72.9167C104.167 71.5353 103.618 70.2106 102.641 69.2338C101.664 68.2571 100.34 67.7083 98.9583 67.7083H88.5417V57.2917H98.9583ZM78.125 72.9167C78.125 74.298 77.5763 75.6228 76.5995 76.5995C75.6228 77.5763 74.298 78.125 72.9167 78.125H31.25C29.8687 78.125 28.5439 77.5763 27.5672 76.5995C26.5904 75.6228 26.0417 74.298 26.0417 72.9167V31.25C26.0417 29.8687 26.5904 28.5439 27.5672 27.5672C28.5439 26.5904 29.8687 26.0417 31.25 26.0417H72.9167C74.298 26.0417 75.6228 26.5904 76.5995 27.5672C77.5763 28.5439 78.125 29.8687 78.125 31.25V72.9167Z" fill="white"/>
</svg>
