<svg width="108" height="80" viewBox="0 0 108 80" fill="none" xmlns="http://www.w3.org/2000/svg">
<path d="M6.12721 24.4801L7.11361 27.9361L6.12721 24.4801ZM101.873 24.4801L102.859 21.0168L101.873 24.4729V24.4801ZM32.9761 74.5346L36.1441 76.2626L32.9761 74.5346ZM75.0241 74.5346L78.1777 72.8138L75.0169 74.5418L75.0241 74.5346ZM21.5712 12.6504L18.2304 11.3184L21.5712 12.6504ZM14.652 20.2608C14.3198 21.1421 14.3462 22.1185 14.7256 22.9806C15.1049 23.8426 15.807 24.5217 16.6812 24.8721C17.5554 25.2226 18.5321 25.2164 19.4019 24.8551C20.2716 24.4938 20.9651 23.806 21.3336 22.9392L14.652 20.2608ZM86.4146 12.6504L89.7554 11.3184L86.4146 12.6504ZM86.6522 22.9392C86.8211 23.3875 87.0779 23.7976 87.4073 24.1453C87.7368 24.4931 88.1324 24.7716 88.5708 24.9646C89.0093 25.1575 89.4819 25.261 89.9609 25.269C90.4399 25.277 90.9156 25.1893 91.3603 25.011C91.805 24.8328 92.2096 24.5676 92.5504 24.231C92.8913 23.8943 93.1615 23.4931 93.3453 23.0507C93.5291 22.6083 93.6228 22.1336 93.6208 21.6546C93.6188 21.1755 93.5212 20.7017 93.3338 20.2608L86.6522 22.9392ZM100.793 27.8353V51.9121H107.993V27.8281H100.793V27.8353ZM80.7122 72.0002H76.8097V79.2002H80.7122V72.0002ZM31.1905 72.0002H27.2881V79.2002H31.1905V72.0002V72.0002ZM7.20001 51.9121V27.8281H0V51.9121H7.20001ZM7.11361 27.9361C37.7581 19.1801 70.2421 19.1801 100.887 27.9361L102.859 21.0168C70.9254 11.8935 37.0748 11.8935 5.14081 21.0168L7.11361 27.9361V27.9361ZM27.2881 72.0002C21.9604 72.0002 16.8509 69.8837 13.0837 66.1165C9.31643 62.3493 7.20001 57.2398 7.20001 51.9121H0C0 59.1494 2.87498 66.0902 7.99249 71.2077C13.11 76.3252 20.0508 79.2002 27.2881 79.2002V72.0002ZM29.8225 72.8138C29.9567 72.568 30.1544 72.3628 30.3951 72.2197C30.6357 72.0766 30.9105 72.0007 31.1905 72.0002V79.2002C33.2569 79.2002 35.1505 78.077 36.1369 76.2626L29.8225 72.8138V72.8138ZM36.1369 76.2626C43.8481 62.1289 64.1449 62.1289 71.8633 76.2626L78.1777 72.8138C67.7377 53.6761 40.2553 53.6761 29.8225 72.8138L36.1369 76.2626ZM76.8097 72.0002C77.3857 72.0002 77.9041 72.3098 78.1777 72.8138L71.8633 76.2626C72.8497 78.077 74.7433 79.2002 76.8097 79.2002V72.0002V72.0002ZM100.8 51.9121C100.8 57.2398 98.6838 62.3493 94.9165 66.1165C91.1493 69.8837 86.0398 72.0002 80.7122 72.0002V79.2002C87.9494 79.2002 94.8902 76.3252 100.008 71.2077C105.125 66.0902 108 59.1494 108 51.9121H100.8ZM108 27.8281C108 26.2883 107.498 24.7906 106.57 23.5616C105.643 22.3327 104.34 21.4393 102.859 21.0168L100.887 27.9361C100.862 27.9298 100.841 27.9159 100.825 27.8965C100.81 27.877 100.801 27.853 100.8 27.8281H108ZM7.20001 27.8281C7.19924 27.853 7.1904 27.877 7.17482 27.8965C7.15924 27.9159 7.13776 27.9298 7.11361 27.9361L5.14081 21.024C3.66136 21.4462 2.35953 22.3385 1.43207 23.566C0.504607 24.7935 0.00192743 26.2896 0 27.8281H7.20001ZM18.2376 11.3184L14.6592 20.2608L21.3408 22.9392L24.9192 13.9896L18.2376 11.3184V11.3184ZM83.081 13.9824L86.6594 22.9392L93.341 20.2608L89.7626 11.3184L83.081 13.9824ZM34.9489 7.20002H73.0513V0H34.9489V7.20002ZM89.7626 11.3184C88.4271 7.97784 86.1213 5.11407 83.1426 3.0966C80.1639 1.07914 76.649 0.000550233 73.0513 0V7.20002C75.2102 7.19965 77.3197 7.84633 79.1075 9.05657C80.8952 10.2668 82.2793 11.9851 83.081 13.9896L89.7626 11.3184V11.3184ZM24.9192 13.9824C25.722 11.9792 27.1066 10.2625 28.8943 9.05359C30.6819 7.84469 32.7908 7.19908 34.9489 7.20002V0C31.3512 0.000550233 27.8363 1.07914 24.8576 3.0966C21.8789 5.11407 19.5731 7.97784 18.2376 11.3184L24.9192 13.9824V13.9824Z" fill="white"/>
</svg>
