<svg width="36" height="27" viewBox="0 0 36 27" fill="none" xmlns="http://www.w3.org/2000/svg">
<path d="M30.7026 2.19304C31.2842 2.19304 31.842 2.42409 32.2533 2.83537C32.6646 3.24664 32.8956 3.80445 32.8956 4.38609V21.9304C32.8956 22.5121 32.6646 23.0699 32.2533 23.4811C31.842 23.8924 31.2842 24.1235 30.7026 24.1235H4.38609C3.80445 24.1235 3.24664 23.8924 2.83537 23.4811C2.42409 23.0699 2.19304 22.5121 2.19304 21.9304V4.38609C2.19304 3.80445 2.42409 3.24664 2.83537 2.83537C3.24664 2.42409 3.80445 2.19304 4.38609 2.19304H30.7026ZM4.38609 0C3.22282 0 2.10721 0.462104 1.28465 1.28465C0.462104 2.1072 0 3.22282 0 4.38609L0 21.9304C0 23.0937 0.462104 24.2093 1.28465 25.0319C2.10721 25.8544 3.22282 26.3165 4.38609 26.3165H30.7026C31.8659 26.3165 32.9815 25.8544 33.804 25.0319C34.6266 24.2093 35.0887 23.0937 35.0887 21.9304V4.38609C35.0887 3.22282 34.6266 2.1072 33.804 1.28465C32.9815 0.462104 31.8659 0 30.7026 0H4.38609Z" fill="white"/>
<path d="M9.8863 19.7374H13.0202L17.3843 6.58129H14.4961L11.5727 16.9039H11.4477L8.4981 6.58129H5.48267L9.8863 19.7374ZM23.8933 6.58129H18.6409V19.7374H21.2134V14.8315H23.5468L25.8495 19.7374H28.7596L26.1192 14.4368C27.3144 13.9762 28.5096 12.6736 28.5096 10.7459C28.5096 8.23046 26.8144 6.5791 23.8933 6.5791V6.58129ZM21.2134 12.8753V8.62521H23.5161C24.8977 8.62521 25.8187 9.3862 25.8187 10.7941C25.8187 12.1823 24.924 12.8775 23.4788 12.8775H21.2134V12.8753Z" fill="white"/>
</svg>
