<svg width="195" height="36" viewBox="0 0 195 36" fill="none" xmlns="http://www.w3.org/2000/svg">
<path fill-rule="evenodd" clip-rule="evenodd" d="M0.209872 18.015C0.0847997 26.3852 6.06923 33.4856 13.8019 35.2606V19.4091C13.8019 18.6445 14.4246 18.0123 15.175 18.0123H17.2931C17.3558 18.0123 17.3871 17.9803 17.4182 17.9485C17.4493 17.9168 17.4802 17.8853 17.5419 17.8853V0.391113C8.18865 0.391113 0.336303 7.87379 0.208512 18.015H0.209872ZM19.6627 0.517967V18.6471C19.6627 19.4117 19.04 20.0439 18.2923 20.0439H16.1715C16.0492 20.0439 15.9227 20.1709 15.9227 20.2979V35.509C25.1495 36.5249 34.7515 28.918 34.7515 18.0135C34.7515 9.01107 28.1417 1.5325 19.6613 0.516602L19.6627 0.517967ZM67.1682 6.85799C65.0475 6.85799 63.8022 7.99815 62.8043 10.1542L57.1937 23.3404L51.5832 10.1542C50.5853 7.99678 49.34 6.85799 47.3416 6.85799C45.4723 6.85799 43.4779 8.25075 43.4779 11.1687V27.5227H47.8419V11.6767L53.4538 24.7372C54.2015 26.5123 55.4482 27.6511 57.1924 27.6511C58.9393 27.6511 60.186 26.5109 60.935 24.7359L66.5456 11.6739V27.5227H70.9095V11.2971C70.9095 8.25212 69.0389 6.85936 67.171 6.85936L67.1682 6.85799ZM118.541 12.0561C117.794 10.408 116.421 9.64746 115.047 9.64746C113.677 9.64746 112.182 10.4067 111.558 12.0548L104.45 27.6482H109.064L110.56 23.9724H119.536L121.032 27.6509H125.646L118.541 12.0575V12.0561ZM190.363 10.0268V16.7475H181.636V10.0254H177.272V27.6493H181.636V20.5489H190.363V27.6493H194.727V10.0268H190.363ZM114.55 14.0883L111.932 20.424L111.934 20.4226H117.916L115.298 14.0869C115.173 13.8329 115.046 13.8329 114.924 13.8329C114.8 13.8329 114.675 13.8329 114.55 14.0883ZM78.141 23.4674C78.141 23.7214 78.266 23.8497 78.5148 23.8497V23.9726H89.1133V27.6512H76.3954C74.8986 27.6512 73.777 26.384 73.777 24.9885V12.6899C73.777 11.2972 74.9 10.0273 76.3954 10.0273H89.1133V13.8314H78.5148C78.266 13.8314 78.141 13.9584 78.141 14.2097V16.8723H88.8645V20.2996H78.141V23.4674ZM96.4727 27.6512V14.2097C96.4727 13.9584 96.5978 13.8314 96.8466 13.8314H107.445V10.0273H94.7258C93.2304 10.0273 92.1088 11.2972 92.1088 12.6899V27.6512H96.4727ZM164.678 9.77344C172.035 9.77344 174.527 12.69 174.527 18.7759L174.528 18.7772C174.528 24.863 172.033 27.7797 164.678 27.7797C157.321 27.7797 154.828 24.863 154.828 18.7772C154.828 12.6914 157.321 9.77344 164.678 9.77344ZM164.553 24.1011C160.189 24.1011 158.816 22.453 158.816 18.7758C158.816 15.2257 159.939 13.4506 164.553 13.4506C169.042 13.4506 170.29 15.2257 170.29 18.7758C170.29 22.453 168.917 24.1011 164.553 24.1011ZM134.129 7.36426H142.733C149.093 7.36426 151.586 10.5362 151.711 16.3667C151.711 22.8335 148.469 25.3691 142.485 25.3691H140.614V27.6494H136.25V25.3691H134.381C128.395 25.3691 125.153 22.9618 125.153 16.3667C125.153 10.6605 127.771 7.36426 134.129 7.36426ZM136.244 21.692H134.251C131.134 21.692 129.388 20.4222 129.388 16.3668C129.388 12.6896 131.133 11.0415 133.626 11.0415H136.244V21.692ZM140.485 21.692H142.479C145.596 21.692 147.342 20.2993 147.342 16.3668C147.342 12.5626 145.596 11.0415 143.103 11.0415H140.485V21.692ZM17.1675 25.3693C17.1675 26.5122 18.0416 27.5226 19.2883 27.5226V27.524C20.5363 27.524 21.4091 26.6365 21.4091 25.3693C21.4091 24.2278 20.5363 23.2119 19.2883 23.2119C18.1667 23.2119 17.1675 24.0995 17.1675 25.3693ZM24.3996 27.5236C23.1543 27.5236 22.2816 26.5132 22.2816 25.3703C22.2816 24.1004 23.2781 23.2129 24.4023 23.2129C25.6476 23.2129 26.5204 24.2288 26.5204 25.3703C26.5204 26.6375 25.5226 27.525 24.3996 27.525V27.5236ZM27.2701 25.3718C27.2701 26.5147 28.1429 27.5252 29.3909 27.5252V27.5265C30.6375 27.5265 31.634 26.639 31.5117 25.3718C31.5117 24.2303 30.6375 23.2144 29.3909 23.2144C28.268 23.2144 27.2701 24.102 27.2701 25.3718ZM12.0567 12.6898C12.0567 13.8313 12.9308 14.8472 14.1775 14.8472V14.8459C15.4241 14.8459 16.2983 13.9583 16.2983 12.6885C16.2983 11.5456 15.4241 10.5352 14.1775 10.5352C13.0546 10.5352 12.0567 11.4227 12.0567 12.6898Z" fill="#429564"/>
</svg>
