<svg width="145" height="37" viewBox="0 0 145 37" fill="none" xmlns="http://www.w3.org/2000/svg">
<mask id="mask0_2_520" style="mask-type:alpha" maskUnits="userSpaceOnUse" x="0" y="0" width="145" height="37">
<path fill-rule="evenodd" clip-rule="evenodd" d="M4.56368 7.55547C7.18567 3.28997 10.3668 0.75 13.0492 0.75C15.7241 0.75 18.9053 3.28625 21.5499 7.55547C24.2701 11.9735 25.9023 17.4439 25.9023 22.1965C25.9023 29.1545 21.9277 36.1682 13.053 36.1682C4.16698 36.1682 0.199997 29.1545 0.199997 22.1965C0.199997 17.4476 1.82835 11.9772 4.56368 7.55547ZM91.4445 11.1851H82.4489V2.64664H110.078V11.1851H101.082V34.2716H91.4445V11.1851ZM130.638 11.1851H144.776V2.64664H130.638C117.649 2.64664 110.713 9.00213 110.713 18.4591C110.713 27.9161 117.645 34.2716 130.638 34.2716H144.776V25.7332H130.638C124.627 25.7332 120.675 23.6172 120.675 18.4591C120.675 13.3011 124.631 11.1851 130.638 11.1851ZM57.7061 21.5235L62.8443 2.64664H79.8759V34.2716H70.238V8.52984L63.2335 34.2716H52.1826L45.178 8.54843V34.2716H35.5401V2.64664H52.5679L57.7061 21.5235Z" fill="white"/>
</mask>
<g mask="url(#mask0_2_520)">
<rect x="-31" y="-28" width="180" height="80" fill="#D12D25"/>
</g>
</svg>
