<svg width="179" height="64" viewBox="0 0 179 64" fill="none" xmlns="http://www.w3.org/2000/svg">
<path d="M4.15541 63.6965C4.19423 63.712 4.23305 63.7292 4.27363 63.743C4.31552 63.7579 4.35861 63.7694 4.40244 63.7774C4.87527 63.9227 5.36779 63.9976 5.86346 63.9997H31.4489L14.6666 47.5552V47.5638C11.5611 50.5774 9.50894 52.5692 7.99676 54.0406C6.65396 55.3484 5.73641 56.2461 4.88592 57.0887L3.09847 58.8289C2.54927 59.4091 2.24431 60.1702 2.24445 60.9603C2.24523 61.5509 2.42788 62.1276 2.76866 62.6156C3.10945 63.1035 3.59262 63.4801 4.15541 63.6965Z" fill="#EC5C2F"/>
<path d="M2.24473 60.9606C2.24393 60.1749 2.54489 59.4174 3.08817 58.8378L4.87562 57.0976C5.72611 56.255 6.64013 55.3573 7.98645 54.0495C9.49864 52.5781 11.5508 50.5863 14.6563 47.5727V47.5641L17.686 44.6263L17.7477 44.5677C22.7731 39.6881 29.9229 32.7375 40.4217 22.5285L17.3719 0L4.3145 12.7607C0.41846 16.5703 0.947814 19.0635 0.947814 24.1792V59.1893C0.947278 60.1706 1.25439 61.1285 1.82786 61.9343C2.40133 62.7401 3.21367 63.3551 4.1557 63.6967C3.5929 63.4804 3.10973 63.1038 2.76895 62.6159C2.42816 62.1279 2.24552 61.5512 2.24473 60.9606Z" fill="#6B28F5"/>
<path d="M148.01 40.9375H144.17L139.581 45.4691V40.9375H136.334V53.4225H139.581V48.2621L144.246 53.4225H148.165L142.132 46.7269L148.01 40.9375Z" fill="#111827"/>
<path d="M45.0497 35.8027H36.8517V53.4223H40.2555V47.2815H45.0497C49.1222 47.2815 51.8025 45.2414 51.8025 41.5421C51.8025 37.8427 49.1222 35.8027 45.0497 35.8027ZM44.9456 44.311H40.2555V38.768H44.9456C47.3171 38.768 48.4005 39.8759 48.4005 41.5369C48.4005 43.1979 47.3171 44.311 44.9456 44.311Z" fill="#111827"/>
<path d="M59.4856 40.5859C55.9795 40.5859 52.4999 42.8017 52.4999 47.1799C52.4999 51.5581 55.976 53.7757 59.4856 53.7757C62.9952 53.7757 66.4695 51.5599 66.4695 47.1799C66.4695 42.8 62.9899 40.5859 59.4856 40.5859ZM59.4856 50.8052C57.5781 50.8052 55.7995 49.4716 55.7995 47.1868C55.7995 44.9021 57.5781 43.5685 59.4856 43.5685C61.393 43.5685 63.1716 44.9021 63.1716 47.1868C63.1716 49.4716 61.393 50.8052 59.4856 50.8052Z" fill="#111827"/>
<path d="M74.7608 50.8052C72.8005 50.8052 71.3571 49.4268 71.3571 47.1868C71.3571 44.9727 72.8534 43.5685 74.7608 43.5685C75.9201 43.5685 76.9259 44.0975 77.7235 45.2794L80.5008 43.7063C79.5727 41.7679 77.5629 40.5859 74.7785 40.5859C71.1436 40.5859 68.0504 43.2032 68.0504 47.1799C68.0504 51.1567 70.9901 53.7757 74.7785 53.7757C77.5117 53.7757 79.3415 52.5696 80.6296 50.4278L77.9493 48.9926C77.1835 50.0505 76.3577 50.8052 74.7608 50.8052Z" fill="#111827"/>
<path d="M109.344 48.0108C109.189 49.925 108.8 50.3523 108.132 50.3523C107.798 50.3584 107.465 50.3148 107.145 50.2231L107.161 53.4538C107.537 53.5441 107.924 53.5847 108.312 53.5744C111.07 53.5744 112.102 51.8376 112.359 48.1365L112.668 43.7824H116.323V53.3986H119.571V40.9395H109.884L109.344 48.0108Z" fill="#111827"/>
<path d="M100.131 40.5859C96.4254 40.5859 93.4028 43.2291 93.4028 47.1799C93.4028 51.1308 96.4183 53.7757 99.9756 53.7757C102.785 53.7757 104.563 52.7419 105.853 50.6036L103.275 49.3458C102.476 50.3262 101.754 51.0567 100.027 51.0567C98.1193 51.0567 96.7271 49.8506 96.5224 47.9363H106.368V46.8284C106.368 43.1791 103.794 40.5859 100.131 40.5859ZM96.5736 45.5189C97.0377 44.1095 98.3258 43.0016 100.027 43.0016C101.832 43.0016 103.042 43.9579 103.353 45.5189H96.5736Z" fill="#111827"/>
<path d="M128.121 40.5859C124.416 40.5859 121.393 43.2291 121.393 47.1799C121.393 51.1308 124.409 53.7757 127.968 53.7757C130.779 53.7757 132.555 52.7419 133.845 50.6036L131.267 49.3458C130.468 50.3262 129.746 51.0567 128.021 51.0567C126.113 51.0567 124.721 49.8506 124.515 47.9363H134.361V46.8284C134.359 43.1791 131.781 40.5859 128.121 40.5859ZM124.564 45.5189C125.028 44.1095 126.316 43.0016 128.019 43.0016C129.822 43.0016 131.034 43.9579 131.343 45.5189H124.564Z" fill="#111827"/>
<path d="M81.6523 43.7064H85.4672V53.4225H88.7139V43.7064H92.5287V40.9375H81.6523V43.7064Z" fill="#111827"/>
<path d="M154.608 40.5859C151.102 40.5859 147.622 42.8017 147.622 47.1799C147.622 51.5581 151.104 53.7757 154.608 53.7757C158.112 53.7757 161.594 51.5599 161.594 47.1799C161.594 42.8 158.116 40.5859 154.608 40.5859ZM154.608 50.8052C152.701 50.8052 150.922 49.4716 150.922 47.1868C150.922 44.9021 152.701 43.5685 154.608 43.5685C156.516 43.5685 158.294 44.9021 158.294 47.1868C158.294 49.4716 156.517 50.8052 154.608 50.8052Z" fill="#111827"/>
<path d="M174.522 40.9355L170.996 49.6782L167.471 40.9355H163.227V53.3982H166.313V45.5085L169.736 53.3982H172.258L175.679 45.5085V53.3982H178.767V40.9355H174.522Z" fill="#111827"/>
</svg>
