<svg width="210" height="42" viewBox="0 0 210 42" fill="none" xmlns="http://www.w3.org/2000/svg">
<path d="M70.614 26.1014V11.1841H72.7631C74.5029 11.1841 74.9123 11.4209 74.9123 12.4272C74.9123 13.9783 75.2163 13.9841 76.7201 12.4619C79.14 10.0124 84.9986 10.0577 88.1289 12.5501C93.517 16.8403 93.2216 27.8297 87.6068 31.9698C85.1515 33.7802 79.9061 33.6929 77.3761 31.7994L75.5263 30.4151V35.7169V41.0187H73.0702H70.614V26.1014ZM85.3031 28.1101C87.3565 26.0315 88.0899 22.6359 87.2043 19.3068C85.879 14.3248 80.7296 12.6585 77.3212 16.1087C75.7406 17.7086 75.5289 18.3581 75.5481 21.5473C75.5723 25.5844 76.4763 27.7359 78.6641 28.9633C81.0668 30.3114 83.4282 30.0079 85.3031 28.1101ZM100.288 32.877C99.2164 32.563 97.5602 31.4702 96.6077 30.4487C89.1021 22.3991 95.6155 8.8753 106.044 10.8557C108.97 11.4114 112.628 15.0735 113.526 18.346C114.854 23.188 115.159 22.9936 106.228 22.9936H98.2456V24.5953C98.2456 25.5369 98.9853 26.9458 100.04 28.0139C102.548 30.5524 105.701 30.5336 108.07 27.9661C109.266 26.6701 110.371 26.1014 111.694 26.1014C113.933 26.1014 113.992 26.3692 112.353 29.0899C110.202 32.6619 105.061 34.2755 100.288 32.877ZM109.298 18.9057C109.298 17.0572 105.881 14.2919 103.596 14.2919C101.223 14.2919 98.2456 16.7599 98.2456 18.7275C98.2456 19.7718 98.7897 19.8859 103.772 19.8859C108.395 19.8859 109.298 19.7256 109.298 18.9057ZM133.242 32.9793C126.46 30.8911 122.845 25.6423 122.82 17.8458C122.79 8.38713 128.351 2.28436 137.006 2.27777C143.086 2.27315 149.21 6.63311 149.21 10.9652C149.21 12.2424 148.917 12.4272 146.889 12.4272C144.882 12.4272 144.475 12.1787 143.884 10.5933C142.854 7.83322 139.691 6.08929 136.256 6.38751C131.03 6.84109 128.327 10.1995 127.859 16.8197C127.611 20.322 127.795 21.5158 128.952 23.9362C130.606 27.3936 133.242 29.2045 136.623 29.2045C140.151 29.2045 142.718 27.3872 144.004 23.9786C144.987 21.3738 145.257 21.129 147.145 21.129C148.946 21.129 149.21 21.3306 149.21 22.7028C149.21 29.6319 140.524 35.2218 133.242 32.9793ZM157.648 32.6717C154.618 31.5775 153.672 30.7271 152.172 27.7508C150.518 24.469 150.773 17.6648 152.645 15.1271C154.868 12.1127 156.957 10.969 160.715 10.7092C168.83 10.1483 174.163 17.0851 171.966 25.3445C170.231 31.8666 164.102 35.003 157.648 32.6717ZM164.472 28.945C166.608 27.8273 167.632 25.5768 167.632 22.0012C167.632 17.1335 165.414 14.2919 161.614 14.2919C155.858 14.2919 153.308 23.5075 157.805 28.0596C159.755 30.0335 161.859 30.3129 164.472 28.945ZM7.02206 18.4874C4.41135 10.5392 2.14828 3.68659 1.99301 3.25927C1.51689 1.94896 6.59836 2.24997 7.23921 3.57005C7.52964 4.1683 9.25807 9.48259 11.0802 15.3796C12.9023 21.2766 14.5483 26.1014 14.738 26.1014C14.9277 26.1014 16.7361 20.857 18.7567 14.4473L22.4306 2.79311L25.1118 2.59799C27.1281 2.45126 27.7168 2.60541 27.4857 3.21954C27.3167 3.66871 25.0007 10.5364 22.3392 18.481L17.5 32.9257L14.6344 32.9321L11.7688 32.9385L7.02206 18.4874ZM28.2456 22.0613V11.1841H30.7017H33.1579V22.0613V32.9385H30.7017H28.2456V22.0613ZM36.2281 22.0613V11.1841H38.3772C40.2899 11.1841 40.5263 11.3644 40.5263 12.8227V14.4614L42.1576 12.8101C43.0547 11.902 44.4513 10.9906 45.2611 10.7849C47.4766 10.222 50.9785 10.983 52.4345 12.3438C53.7187 13.544 53.7435 13.5419 55.8598 12.0577C59.5749 9.45212 65.2219 10.4351 66.8103 13.9637C67.267 14.9785 67.5438 18.8659 67.5438 24.266V32.9385H65.455H63.3661L63.1523 24.6421C62.9093 15.2108 62.5378 14.2919 58.9673 14.2919C54.981 14.2919 54.3767 15.6192 54.1269 24.9229L53.9117 32.9385H51.8243H49.7368V24.9966C49.7368 15.7735 49.1858 14.2919 45.7553 14.2919C44.2507 14.2919 43.3381 14.739 42.413 15.9296C41.2813 17.3859 41.1403 18.4187 41.1403 25.2529V32.9385H38.6842H36.2281V22.0613ZM115.581 17.8658L115.746 2.79311L118.048 2.6002L120.351 2.40729V17.6729V32.9385H117.884H115.417L115.581 17.8658ZM174.386 22.0613V11.1841H176.535C178.448 11.1841 178.684 11.3644 178.684 12.8227V14.4614L180.315 12.8101C181.213 11.902 182.609 10.9906 183.419 10.7849C185.635 10.222 189.136 10.983 190.592 12.3438C191.877 13.544 191.901 13.5419 194.018 12.0577C197.733 9.45212 203.38 10.4351 204.968 13.9637C205.425 14.9785 205.702 18.8659 205.702 24.266V32.9385H203.613H201.524L201.31 24.6421C201.067 15.2108 200.696 14.2919 197.125 14.2919C193.139 14.2919 192.535 15.6192 192.285 24.9229L192.07 32.9385H189.982H187.895V24.9966C187.895 15.7735 187.344 14.2919 183.913 14.2919C182.409 14.2919 181.496 14.739 180.571 15.9296C179.439 17.3859 179.298 18.4187 179.298 25.2529V32.9385H176.842H174.386V22.0613ZM28.4848 6.56764C28.2998 6.07972 28.2394 5.03084 28.3505 4.23681C28.5149 3.06236 28.9821 2.75713 30.8552 2.6002L33.1579 2.40729V4.93103C33.1579 7.4052 33.1153 7.45477 30.9895 7.45477C29.6776 7.45477 28.6883 7.10437 28.4848 6.56764Z" fill="#002886"/>
</svg>
