<svg width="148" height="56" viewBox="0 0 148 56" fill="none" xmlns="http://www.w3.org/2000/svg">
<path d="M77.9755 35.8749L77.9544 27.0759L73.614 34.3209H72.097L67.7566 27.2439V35.8749H64.554V21.1749H67.3774L72.8976 30.3099L78.3336 21.1749H81.157L81.1781 35.8749H77.9755Z" fill="#332974"/>
<path d="M96.9921 23.9469H92.2725V35.8749H88.9013V23.9469H84.2028V21.1749H96.9921V23.9469Z" fill="#332974"/>
<path d="M112.691 21.1749L106.413 32.8089C105.809 33.9289 105.078 34.7759 104.221 35.3499C103.379 35.9239 102.459 36.2109 101.461 36.2109C100.689 36.2109 99.8881 36.0429 99.0593 35.7069L99.881 33.1239C100.471 33.3059 100.963 33.3969 101.356 33.3969C101.777 33.3969 102.157 33.2989 102.494 33.1029C102.831 32.8929 103.14 32.5709 103.421 32.1369L103.547 31.9689L97.7319 21.1749H101.377L105.296 29.0709L109.341 21.1749H112.691Z" fill="#332974"/>
<path d="M121.98 36.1269C120.477 36.1269 119.115 35.8049 117.893 35.1609C116.685 34.5029 115.73 33.5999 115.027 32.4519C114.339 31.2899 113.995 29.9809 113.995 28.5249C113.995 27.0689 114.339 25.7669 115.027 24.6189C115.73 23.4569 116.685 22.5539 117.893 21.9099C119.115 21.2519 120.484 20.9229 122.001 20.9229C123.28 20.9229 124.431 21.1469 125.457 21.5949C126.496 22.0429 127.367 22.6869 128.069 23.5269L125.878 25.5429C124.881 24.3949 123.645 23.8209 122.17 23.8209C121.257 23.8209 120.442 24.0239 119.726 24.4299C119.009 24.8219 118.448 25.3749 118.04 26.0889C117.647 26.8029 117.45 27.6149 117.45 28.5249C117.45 29.4349 117.647 30.2469 118.04 30.9609C118.448 31.6749 119.009 32.2349 119.726 32.6409C120.442 33.0329 121.257 33.2289 122.17 33.2289C123.645 33.2289 124.881 32.6479 125.878 31.4859L128.069 33.5019C127.367 34.3559 126.496 35.0069 125.457 35.4549C124.417 35.9029 123.259 36.1269 121.98 36.1269Z" fill="#332974"/>
<path d="M131.172 21.1749H134.564V30.7509L141.602 21.1749H144.804V35.8749H141.433V26.3199L134.396 35.8749H131.172V21.1749Z" fill="#332974"/>
<path fill-rule="evenodd" clip-rule="evenodd" d="M41.6292 16.2421L31.0647 11.2997C29.7416 10.6808 28.2003 10.6808 26.8772 11.2997L16.3127 16.2421C14.9895 16.861 14.0286 18.0317 13.7018 19.4225L11.0926 30.5278C10.7658 31.9186 11.1087 33.3784 12.0244 34.4937L19.3352 43.3995C20.2509 44.5149 21.6395 45.1645 23.1081 45.1645H34.8338C36.3023 45.1645 37.691 44.5149 38.6066 43.3995L45.9175 34.4937C46.8331 33.3784 47.1761 31.9186 46.8493 30.5278L44.2401 19.4225C43.9133 18.0317 42.9523 16.861 41.6292 16.2421ZM32.7778 7.84408C30.3721 6.71864 27.5698 6.71864 25.1641 7.84407L14.5996 12.7864C12.1939 13.9118 10.4467 16.0402 9.85253 18.569L7.24331 29.6743C6.64916 32.2031 7.27273 34.8572 8.93752 36.8851L16.2484 45.7909C17.9132 47.8188 20.438 49 23.1081 49H34.8338C37.5039 49 40.0287 47.8188 41.6935 45.7909L49.0043 36.8851C50.6691 34.8572 51.2927 32.2031 50.6985 29.6743L48.0893 18.569C47.4952 16.0402 45.748 13.9118 43.3423 12.7864L32.7778 7.84408Z" fill="#332974"/>
</svg>
